<?xml version="1.0" encoding="UTF-8" ?>
<!DOCTYPE svg PUBLIC "-//W3C//DTD SVG 1.1//EN" "http://www.w3.org/Graphics/SVG/1.1/DTD/svg11.dtd">
<svg width="128pt" height="128pt" viewBox="0 0 128 128" version="1.1" xmlns="http://www.w3.org/2000/svg">
<g id="#d23c22ff">
<path fill="#d23c22" opacity="1.00" d=" M 5.64 0.00 L 122.03 0.00 C 124.92 0.69 127.04 2.88 128.00 5.64 L 128.00 122.05 C 127.30 124.92 125.12 127.03 122.38 128.00 L 5.95 128.00 C 3.07 127.30 0.96 125.11 0.00 122.36 L 0.00 5.96 C 0.70 3.07 2.89 0.95 5.64 0.00 M 23.93 27.00 C 20.36 29.56 20.99 35.15 24.00 37.90 C 33.10 45.90 42.49 53.57 51.61 61.56 C 42.95 68.58 34.36 75.70 25.67 82.69 C 24.07 84.04 22.06 85.25 21.43 87.38 C 20.29 90.10 20.85 93.77 23.55 95.35 C 26.00 96.84 29.23 96.16 31.32 94.33 C 41.32 86.39 51.10 78.17 61.07 70.17 C 63.49 68.19 66.58 66.35 67.21 63.01 C 67.88 60.23 66.31 57.52 64.21 55.81 C 53.52 46.49 42.57 37.49 31.94 28.10 C 29.91 26.00 26.42 25.26 23.93 27.00 M 64.01 81.70 C 64.00 85.45 63.95 89.19 64.09 92.94 C 77.63 93.11 91.19 93.32 104.72 92.84 C 104.65 89.05 104.95 85.24 104.48 81.47 C 90.99 81.60 77.48 81.14 64.01 81.70 Z" />
</g>
<g id="#ffffffff">
<path fill="#ffffff" opacity="1.00" d=" M 23.93 27.00 C 26.42 25.26 29.91 26.00 31.94 28.10 C 42.57 37.49 53.52 46.49 64.21 55.81 C 66.31 57.52 67.88 60.23 67.21 63.01 C 66.58 66.35 63.49 68.19 61.07 70.17 C 51.10 78.17 41.32 86.39 31.32 94.33 C 29.23 96.16 26.00 96.84 23.55 95.35 C 20.85 93.77 20.29 90.10 21.43 87.38 C 22.06 85.25 24.07 84.04 25.67 82.69 C 34.36 75.70 42.95 68.58 51.61 61.56 C 42.49 53.57 33.10 45.90 24.00 37.90 C 20.99 35.15 20.36 29.56 23.93 27.00 Z" />
<path fill="#ffffff" opacity="1.00" d=" M 64.01 81.70 C 77.48 81.14 90.99 81.60 104.48 81.47 C 104.95 85.24 104.65 89.05 104.72 92.84 C 91.19 93.32 77.63 93.11 64.09 92.94 C 63.95 89.19 64.00 85.45 64.01 81.70 Z" />
</g>
</svg>
